<?xml version="1.0" standalone="no"?>
<!DOCTYPE svg PUBLIC "-//W3C//DTD SVG 20010904//EN"
 "http://www.w3.org/TR/2001/REC-SVG-20010904/DTD/svg10.dtd">
<svg version="1.0" xmlns="http://www.w3.org/2000/svg"
 width="1270.000000pt" height="1270.000000pt" viewBox="0 0 1270.000000 1270.000000"
 preserveAspectRatio="xMidYMid meet">
<metadata>
Created by potrace 1.11, written by Peter Selinger 2001-2013
</metadata>
<g transform="translate(0.000000,1270.000000) scale(0.100000,-0.100000)"
fill="#000000" stroke="none">
<path d="M2140 10800 c0 -115 1 -210 3 -210 2 0 368 -72 437 -86 104 -21 313
-91 395 -132 188 -94 259 -196 281 -407 8 -83 8 -5595 0 -5645 -25 -145 -56
-218 -122 -287 -97 -102 -253 -172 -447 -198 -71 -10 -106 -15 -157 -20 -30
-4 -66 -8 -80 -10 -14 -2 -52 -7 -85 -10 -70 -6 -163 -16 -185 -21 -8 -1 -20
-3 -27 -3 -9 -1 -12 -182 -11 -784 l2 -782 4393 0 4393 0 0 782 c0 619 -3 783
-12 784 -7 0 -26 2 -43 4 -16 2 -50 7 -75 10 -25 3 -56 7 -70 10 -14 2 -47 7
-75 10 -87 11 -250 45 -312 65 -77 25 -168 77 -263 148 -68 52 -272 248 -360
347 -20 22 -60 67 -90 101 -30 33 -69 76 -85 95 -43 48 -205 245 -300 364 -87
108 -114 141 -130 159 -6 6 -24 29 -40 51 -17 22 -35 46 -42 53 -7 7 -52 63
-100 125 -48 62 -90 114 -93 117 -3 3 -55 68 -115 145 -60 77 -112 142 -115
145 -3 3 -18 23 -35 45 -16 22 -32 42 -35 45 -7 6 -108 135 -578 740 -194 250
-359 462 -365 470 -7 8 -29 37 -50 65 l-38 50 28 8 c15 4 33 9 38 11 119 29
446 156 620 241 295 143 492 280 685 475 149 150 280 344 341 505 11 28 24 59
29 70 42 91 105 380 116 535 5 69 5 372 0 400 -2 14 -7 49 -10 79 -16 138 -56
283 -116 422 -120 278 -319 496 -625 686 -115 72 -351 175 -533 233 -120 39
-394 107 -457 115 -16 2 -68 10 -115 18 -47 9 -110 18 -140 22 -30 4 -66 8
-80 10 -24 4 -84 9 -205 20 -33 3 -89 9 -125 12 -36 4 -1135 8 -2442 10
l-2378 4 0 -211z m3760 -294 c14 -2 49 -7 78 -10 215 -24 441 -90 611 -178
375 -195 572 -484 645 -948 25 -153 26 -563 2 -685 -2 -11 -7 -47 -10 -80 -9
-81 -58 -283 -91 -375 -159 -442 -491 -731 -983 -854 -95 -24 -114 -28 -217
-41 -27 -4 -61 -9 -75 -12 -14 -3 -172 -7 -352 -10 l-328 -5 0 1607 0 1608
348 -6 c191 -3 358 -8 372 -11z m-408 -3724 c14 -20 70 -89 128 -157 29 -33
431 -535 594 -741 140 -177 489 -640 602 -799 8 -11 34 -47 58 -81 205 -284
876 -1271 876 -1289 0 -3 -342 -5 -760 -5 l-760 0 0 29 c0 31 3 30 -110 46
-168 25 -404 75 -500 107 -91 29 -145 55 -215 102 -70 47 -96 73 -141 142 -28
44 -39 72 -71 185 -4 13 -9 576 -10 1252 l-4 1227 150 0 c134 0 151 -2 163
-18z"/>
</g>
</svg>
